<svg width="32" height="34" viewBox="0 0 32 34" fill="none" xmlns="http://www.w3.org/2000/svg">
<path fill-rule="evenodd" clip-rule="evenodd" d="M30.7536 3.44141C26.1588 1.54428 21.127 0.5 15.8521 0.5C10.5772 0.5 5.54751 1.54447 0.951007 3.44141C-2.60203 14.9479 4.12473 30.5135 15.8523 33.5C27.5818 30.5137 34.3078 14.9479 30.7536 3.44141ZM19.1636 17.5344C19.6906 17.0631 20.1123 16.4845 20.4009 15.8367C20.6894 15.1889 20.8382 14.4868 20.8375 13.7768C20.8375 11.0028 18.6069 8.75271 15.8521 8.75271C13.0973 8.75271 10.8667 11.0026 10.8667 13.7768C10.8658 14.487 11.0147 15.1894 11.3037 15.8373C11.5926 16.4851 12.015 17.0636 12.5427 17.5344L11.7089 25.2447C14.4223 25.9847 17.2821 25.9847 19.9955 25.2447L19.1636 17.5344Z" fill="url(#paint0_linear_1_24)"/>
<path fill-rule="evenodd" clip-rule="evenodd" d="M15.8521 0.5C10.5794 0.5 5.54754 1.54447 0.950844 3.44141C-1.17707 10.3319 0.381969 18.6787 4.4949 24.9083C3.95258 14.6847 13.0103 9.41807 13.6899 9.25065C14.3645 8.92316 15.1038 8.75311 15.8526 8.75311C16.6015 8.75311 17.3407 8.92316 18.0154 9.25065C18.6934 9.41807 27.7513 14.6847 27.2103 24.9083C31.3211 18.6787 32.8798 10.3319 30.7524 3.44141C26.1589 1.54428 21.127 0.5 15.8521 0.5Z" fill="url(#paint1_linear_1_24)"/>
<path fill-rule="evenodd" clip-rule="evenodd" d="M15.8517 25.7997C14.4523 25.8013 13.059 25.6147 11.7085 25.2447C11.7085 25.2447 11.1073 30.6381 12.35 32.172C13.465 32.7437 14.6394 33.1891 15.8517 33.5C17.0649 33.1895 18.24 32.7441 19.3556 32.172C20.5984 30.6375 19.9951 25.2447 19.9951 25.2447C18.6447 25.615 17.2512 25.8016 15.8517 25.7997Z" fill="#003780"/>
<path fill-rule="evenodd" clip-rule="evenodd" d="M0.355219 14.2629C3.8124 1.62221 27.8932 1.62221 31.3483 14.2629C31.9556 10.5873 31.8018 6.83809 30.7532 3.44241C26.1585 1.54528 21.1266 0.501007 15.8517 0.501007C10.5768 0.501007 5.54715 1.54489 0.950646 3.44182C-0.0980858 6.83907 -0.251921 10.5873 0.355219 14.2629Z" fill="#5EFAF7"/>
<path fill-rule="evenodd" clip-rule="evenodd" d="M18.0156 8.6683C17.3409 8.34069 16.6017 8.17056 15.8528 8.17056C15.1039 8.17056 14.3647 8.34069 13.69 8.6683C13.0241 8.83159 4.2983 13.9015 4.47225 23.7405C4.64228 14.2839 13.0362 9.41295 13.69 9.25162C14.3647 8.92414 15.1039 8.75408 15.8528 8.75408C16.6017 8.75408 17.3409 8.92414 18.0156 9.25162C18.6672 9.41295 27.0612 14.2839 27.2312 23.7405C27.4073 13.9015 18.6815 8.83041 18.0156 8.6683Z" fill="#5EFAF7"/>
<defs>
<linearGradient id="paint0_linear_1_24" x1="15.8922" y1="12.6621" x2="15.8922" y2="38.5796" gradientUnits="userSpaceOnUse">
<stop stop-color="#003780"/>
<stop offset="1" stop-color="#23A4C9"/>
</linearGradient>
<linearGradient id="paint1_linear_1_24" x1="15.8918" y1="25.771" x2="15.8918" y2="-7.85052" gradientUnits="userSpaceOnUse">
<stop stop-color="#0067B0"/>
<stop offset="1" stop-color="#00A5AF"/>
</linearGradient>
</defs>
</svg>
