<svg width="156" height="156" viewBox="0 0 156 156" fill="none" xmlns="http://www.w3.org/2000/svg">
<path d="M78 77.9978L97.0908 58.9071C92.6735 54.4903 86.8614 51.7418 80.6449 51.1299C74.4283 50.518 68.1919 52.0805 62.9982 55.5513C57.8045 59.0221 53.975 64.1863 52.1621 70.164C50.3492 76.1418 50.6651 82.5632 53.056 88.3341C55.4468 94.1051 59.7648 98.8685 65.274 101.813C70.7832 104.757 77.1429 105.7 83.2694 104.481C89.3959 103.262 94.9102 99.956 98.8726 95.127C102.835 90.298 105 84.2444 105 77.9978" stroke="#00A5AF" stroke-width="4" stroke-linecap="round" stroke-linejoin="round"/>
<path d="M77.9992 149C111.043 137.651 134.597 111.268 138.291 77.6752C139.316 63.0927 139.229 48.4536 138.032 33.8842C137.873 31.5877 136.861 29.4325 135.194 27.8395C133.526 26.2465 131.323 25.3301 129.013 25.2694C114.065 24.8107 96.6896 22.3274 83.2646 9.15044C81.8617 7.77248 79.9709 7 78.001 7C76.0311 7 74.1403 7.77248 72.7373 9.15044C59.3087 22.3274 41.9337 24.8107 26.9886 25.2694C24.6793 25.3301 22.4757 26.2465 20.8081 27.8395C19.1405 29.4325 18.1288 31.5877 17.9705 33.8842C16.7713 48.4536 16.6833 63.0926 17.7074 77.6752C21.4016 111.268 44.9556 137.651 77.9992 149Z" stroke="#00A5AF" stroke-width="4" stroke-linecap="round" stroke-linejoin="round"/>
</svg>
