<svg width="172" height="172" viewBox="0 0 172 172" fill="none" xmlns="http://www.w3.org/2000/svg">
<path d="M86 155.875C118.404 144.706 141.502 118.741 145.125 85.6811C146.128 71.3298 146.046 56.9248 144.871 42.5843C144.715 40.3243 143.723 38.2032 142.088 36.6355C140.453 35.0677 138.292 34.1659 136.027 34.1062C121.367 33.6547 104.329 31.2108 91.1636 18.2428C89.7878 16.8866 87.9336 16.1264 86.0018 16.1264C84.07 16.1264 82.2158 16.8866 80.84 18.2428C67.6712 31.2108 50.6325 33.6547 35.9767 34.1062C33.712 34.1659 31.551 35.0677 29.9157 36.6355C28.2804 38.2032 27.2882 40.3243 27.133 42.5843C25.957 56.9227 25.8708 71.3297 26.875 85.6811C30.5013 118.741 53.5959 144.706 86 155.875Z" stroke="#00A5AF" stroke-width="4" stroke-linecap="round" stroke-linejoin="round"/>
<path d="M127.28 84.065H44.72C43.9818 73.2462 43.9017 62.3926 44.4799 51.5641C57.1076 50.4891 72.3941 47.2749 86 37.3132V136.679C109.349 126.656 124.6 107.371 127.28 84.065Z" stroke="#00A5AF" stroke-width="4" stroke-linecap="round" stroke-linejoin="round"/>
</svg>
